<svg width="308" height="400" viewBox="0 0 308 400" fill="none" xmlns="http://www.w3.org/2000/svg">
<rect x="4.5" y="171.5" width="299" height="44" rx="3.5" stroke="white"/>
<path d="M60.9952 199.07C59.7538 199.07 58.7878 198.711 58.0972 197.992C57.4158 197.273 57.0752 196.223 57.0752 194.842V189.2H57.7892V194.814C57.7892 196.018 58.0645 196.919 58.6152 197.516C59.1658 198.113 59.9638 198.412 61.0092 198.412C62.0452 198.412 62.8385 198.113 63.3892 197.516C63.9398 196.919 64.2152 196.018 64.2152 194.814V189.2H64.9292V194.842C64.9292 196.223 64.5838 197.273 63.8932 197.992C63.2025 198.711 62.2365 199.07 60.9952 199.07ZM70.8367 199.07C70.1181 199.07 69.4321 198.949 68.7787 198.706C68.1347 198.454 67.6307 198.132 67.2667 197.74L67.5887 197.208C67.9341 197.572 68.3961 197.871 68.9747 198.104C69.5627 198.328 70.1787 198.44 70.8227 198.44C71.7561 198.44 72.4607 198.263 72.9367 197.908C73.4127 197.553 73.6507 197.091 73.6507 196.522C73.6507 196.083 73.5247 195.733 73.2727 195.472C73.0207 195.211 72.7081 195.01 72.3347 194.87C71.9614 194.73 71.4574 194.585 70.8227 194.436C70.1041 194.259 69.5254 194.086 69.0867 193.918C68.6574 193.75 68.2887 193.493 67.9807 193.148C67.6821 192.793 67.5327 192.322 67.5327 191.734C67.5327 191.258 67.6587 190.824 67.9107 190.432C68.1627 190.031 68.5454 189.713 69.0587 189.48C69.5814 189.247 70.2301 189.13 71.0047 189.13C71.5461 189.13 72.0781 189.209 72.6007 189.368C73.1234 189.527 73.5761 189.741 73.9587 190.012L73.6927 190.586C73.3007 190.315 72.8667 190.11 72.3907 189.97C71.9241 189.83 71.4621 189.76 71.0047 189.76C70.0994 189.76 69.4134 189.942 68.9467 190.306C68.4801 190.67 68.2467 191.141 68.2467 191.72C68.2467 192.159 68.3727 192.509 68.6247 192.77C68.8767 193.031 69.1894 193.232 69.5627 193.372C69.9361 193.512 70.4447 193.661 71.0887 193.82C71.8074 193.997 72.3814 194.17 72.8107 194.338C73.2401 194.506 73.6041 194.763 73.9027 195.108C74.2107 195.444 74.3647 195.901 74.3647 196.48C74.3647 196.956 74.2341 197.39 73.9727 197.782C73.7207 198.174 73.3287 198.487 72.7967 198.72C72.2647 198.953 71.6114 199.07 70.8367 199.07ZM83.554 198.356V199H76.792V189.2H83.344V189.844H77.506V193.708H82.728V194.338H77.506V198.356H83.554ZM92.9612 199L90.6232 195.724C90.2779 195.771 89.9606 195.794 89.6712 195.794H86.8712V199H86.1572V189.2H89.6712C90.9032 189.2 91.8692 189.494 92.5692 190.082C93.2692 190.661 93.6192 191.468 93.6192 192.504C93.6192 193.279 93.4186 193.932 93.0172 194.464C92.6252 194.987 92.0606 195.355 91.3232 195.57L93.7732 199H92.9612ZM89.6712 195.164C90.7166 195.164 91.5146 194.935 92.0652 194.478C92.6159 194.011 92.8912 193.353 92.8912 192.504C92.8912 191.655 92.6159 191.001 92.0652 190.544C91.5146 190.077 90.7166 189.844 89.6712 189.844H86.8712V195.164H89.6712ZM104.213 189.2V199H103.625L96.9474 190.488V199H96.2334V189.2H96.8354L103.499 197.712V189.2H104.213ZM113.698 196.242H108.014L106.768 199H105.998L110.506 189.2H111.22L115.728 199H114.958L113.698 196.242ZM113.432 195.64L110.856 189.984L108.294 195.64H113.432ZM126.775 199L126.761 190.614L122.659 197.698H122.309L118.207 190.642V199H117.507V189.2H118.109L122.491 196.774L126.873 189.2H127.461L127.475 199H126.775ZM137.654 198.356V199H130.892V189.2H137.444V189.844H131.606V193.708H136.828V194.338H131.606V198.356H137.654Z" fill="white"/>
<path d="M32.6667 201.5V199.833C32.6667 198.949 32.3155 198.101 31.6903 197.476C31.0652 196.851 30.2174 196.5 29.3333 196.5H22.6667C21.7826 196.5 20.9348 196.851 20.3096 197.476C19.6845 198.101 19.3333 198.949 19.3333 199.833V201.5" stroke="white" stroke-linecap="round" stroke-linejoin="round"/>
<path d="M26 193.167C27.841 193.167 29.3333 191.674 29.3333 189.833C29.3333 187.992 27.841 186.5 26 186.5C24.1591 186.5 22.6667 187.992 22.6667 189.833C22.6667 191.674 24.1591 193.167 26 193.167Z" stroke="white" stroke-linecap="round" stroke-linejoin="round"/>
<rect x="4.5" y="236.5" width="299" height="44" rx="3.5" stroke="white"/>
<path d="M60.346 254.2C61.578 254.2 62.544 254.494 63.244 255.082C63.944 255.661 64.294 256.468 64.294 257.504C64.294 258.531 63.944 259.338 63.244 259.926C62.544 260.505 61.578 260.794 60.346 260.794H57.546V264H56.832V254.2H60.346ZM60.346 260.15C61.3914 260.15 62.1894 259.921 62.74 259.464C63.2907 259.007 63.566 258.353 63.566 257.504C63.566 256.655 63.2907 256.001 62.74 255.544C62.1894 255.077 61.3914 254.844 60.346 254.844H57.546V260.15H60.346ZM72.2729 261.242H66.5889L65.3429 264H64.5729L69.0809 254.2H69.7949L74.3029 264H73.5329L72.2729 261.242ZM72.0069 260.64L69.4309 254.984L66.8689 260.64H72.0069ZM78.658 264.07C77.9394 264.07 77.2534 263.949 76.6 263.706C75.956 263.454 75.452 263.132 75.088 262.74L75.41 262.208C75.7554 262.572 76.2174 262.871 76.796 263.104C77.384 263.328 78 263.44 78.644 263.44C79.5774 263.44 80.282 263.263 80.758 262.908C81.234 262.553 81.472 262.091 81.472 261.522C81.472 261.083 81.346 260.733 81.094 260.472C80.842 260.211 80.5294 260.01 80.156 259.87C79.7827 259.73 79.2787 259.585 78.644 259.436C77.9254 259.259 77.3467 259.086 76.908 258.918C76.4787 258.75 76.11 258.493 75.802 258.148C75.5034 257.793 75.354 257.322 75.354 256.734C75.354 256.258 75.48 255.824 75.732 255.432C75.984 255.031 76.3667 254.713 76.88 254.48C77.4027 254.247 78.0514 254.13 78.826 254.13C79.3674 254.13 79.8994 254.209 80.422 254.368C80.9447 254.527 81.3974 254.741 81.78 255.012L81.514 255.586C81.122 255.315 80.688 255.11 80.212 254.97C79.7454 254.83 79.2834 254.76 78.826 254.76C77.9207 254.76 77.2347 254.942 76.768 255.306C76.3014 255.67 76.068 256.141 76.068 256.72C76.068 257.159 76.194 257.509 76.446 257.77C76.698 258.031 77.0107 258.232 77.384 258.372C77.7574 258.512 78.266 258.661 78.91 258.82C79.6287 258.997 80.2027 259.17 80.632 259.338C81.0614 259.506 81.4254 259.763 81.724 260.108C82.032 260.444 82.186 260.901 82.186 261.48C82.186 261.956 82.0554 262.39 81.794 262.782C81.542 263.174 81.15 263.487 80.618 263.72C80.086 263.953 79.4327 264.07 78.658 264.07ZM87.1893 264.07C86.4706 264.07 85.7846 263.949 85.1313 263.706C84.4873 263.454 83.9833 263.132 83.6193 262.74L83.9413 262.208C84.2866 262.572 84.7486 262.871 85.3273 263.104C85.9153 263.328 86.5313 263.44 87.1753 263.44C88.1086 263.44 88.8133 263.263 89.2893 262.908C89.7653 262.553 90.0033 262.091 90.0033 261.522C90.0033 261.083 89.8773 260.733 89.6253 260.472C89.3733 260.211 89.0606 260.01 88.6873 259.87C88.3139 259.73 87.8099 259.585 87.1753 259.436C86.4566 259.259 85.8779 259.086 85.4393 258.918C85.0099 258.75 84.6413 258.493 84.3333 258.148C84.0346 257.793 83.8853 257.322 83.8853 256.734C83.8853 256.258 84.0113 255.824 84.2633 255.432C84.5153 255.031 84.8979 254.713 85.4113 254.48C85.9339 254.247 86.5826 254.13 87.3573 254.13C87.8986 254.13 88.4306 254.209 88.9533 254.368C89.4759 254.527 89.9286 254.741 90.3113 255.012L90.0453 255.586C89.6533 255.315 89.2193 255.11 88.7433 254.97C88.2766 254.83 87.8146 254.76 87.3573 254.76C86.4519 254.76 85.7659 254.942 85.2993 255.306C84.8326 255.67 84.5993 256.141 84.5993 256.72C84.5993 257.159 84.7253 257.509 84.9773 257.77C85.2293 258.031 85.5419 258.232 85.9153 258.372C86.2886 258.512 86.7973 258.661 87.4413 258.82C88.1599 258.997 88.7339 259.17 89.1633 259.338C89.5926 259.506 89.9566 259.763 90.2553 260.108C90.5633 260.444 90.7173 260.901 90.7173 261.48C90.7173 261.956 90.5866 262.39 90.3253 262.782C90.0733 263.174 89.6813 263.487 89.1493 263.72C88.6173 263.953 87.9639 264.07 87.1893 264.07ZM106.249 254.2L102.931 264H102.175L99.1365 255.208L96.0845 264H95.3285L91.9965 254.2H92.7525L95.7345 263.02L98.8005 254.2H99.4865L102.539 263.034L105.549 254.2H106.249ZM112.369 264.07C111.408 264.07 110.54 263.855 109.765 263.426C108.99 262.987 108.379 262.39 107.931 261.634C107.492 260.878 107.273 260.033 107.273 259.1C107.273 258.167 107.492 257.322 107.931 256.566C108.379 255.81 108.99 255.217 109.765 254.788C110.54 254.349 111.408 254.13 112.369 254.13C113.33 254.13 114.198 254.345 114.973 254.774C115.748 255.203 116.354 255.796 116.793 256.552C117.241 257.308 117.465 258.157 117.465 259.1C117.465 260.043 117.241 260.892 116.793 261.648C116.354 262.404 115.748 262.997 114.973 263.426C114.198 263.855 113.33 264.07 112.369 264.07ZM112.369 263.412C113.19 263.412 113.932 263.225 114.595 262.852C115.258 262.479 115.78 261.965 116.163 261.312C116.546 260.649 116.737 259.912 116.737 259.1C116.737 258.288 116.546 257.555 116.163 256.902C115.78 256.239 115.258 255.721 114.595 255.348C113.932 254.975 113.19 254.788 112.369 254.788C111.548 254.788 110.801 254.975 110.129 255.348C109.466 255.721 108.944 256.239 108.561 256.902C108.178 257.555 107.987 258.288 107.987 259.1C107.987 259.912 108.178 260.649 108.561 261.312C108.944 261.965 109.466 262.479 110.129 262.852C110.801 263.225 111.548 263.412 112.369 263.412ZM126.745 264L124.407 260.724C124.062 260.771 123.745 260.794 123.455 260.794H120.655V264H119.941V254.2H123.455C124.687 254.2 125.653 254.494 126.353 255.082C127.053 255.661 127.403 256.468 127.403 257.504C127.403 258.279 127.203 258.932 126.801 259.464C126.409 259.987 125.845 260.355 125.107 260.57L127.557 264H126.745ZM123.455 260.164C124.501 260.164 125.299 259.935 125.849 259.478C126.4 259.011 126.675 258.353 126.675 257.504C126.675 256.655 126.4 256.001 125.849 255.544C125.299 255.077 124.501 254.844 123.455 254.844H120.655V260.164H123.455ZM130.018 254.2H133.896C134.913 254.2 135.814 254.41 136.598 254.83C137.391 255.25 138.007 255.833 138.446 256.58C138.884 257.317 139.104 258.157 139.104 259.1C139.104 260.043 138.884 260.887 138.446 261.634C138.007 262.371 137.391 262.95 136.598 263.37C135.814 263.79 134.913 264 133.896 264H130.018V254.2ZM133.84 263.356C134.745 263.356 135.543 263.179 136.234 262.824C136.924 262.46 137.456 261.956 137.83 261.312C138.203 260.668 138.39 259.931 138.39 259.1C138.39 258.269 138.203 257.532 137.83 256.888C137.456 256.244 136.924 255.745 136.234 255.39C135.543 255.026 134.745 254.844 133.84 254.844H130.732V263.356H133.84Z" fill="white"/>
<path d="M31.8333 258.167H20.1667C19.2462 258.167 18.5 258.913 18.5 259.833V265.667C18.5 266.587 19.2462 267.333 20.1667 267.333H31.8333C32.7538 267.333 33.5 266.587 33.5 265.667V259.833C33.5 258.913 32.7538 258.167 31.8333 258.167Z" stroke="white" stroke-linecap="round" stroke-linejoin="round"/>
<path d="M21.8333 258.167V254.833C21.8333 253.728 22.2723 252.668 23.0537 251.887C23.8351 251.106 24.8949 250.667 26 250.667C27.1051 250.667 28.1649 251.106 28.9463 251.887C29.7277 252.668 30.1667 253.728 30.1667 254.833V258.167" stroke="white" stroke-linecap="round" stroke-linejoin="round"/>
<g filter="url(#filter0_d_1_8)">
<rect x="4" y="324" width="300" height="45" rx="4" fill="white"/>
</g>
<path d="M128.871 341.8H130.951V351.24H136.807V353H128.871V341.8ZM143.478 353.16C142.337 353.16 141.308 352.915 140.39 352.424C139.473 351.923 138.753 351.235 138.23 350.36C137.708 349.475 137.446 348.488 137.446 347.4C137.446 346.312 137.708 345.331 138.23 344.456C138.753 343.571 139.473 342.883 140.39 342.392C141.308 341.891 142.337 341.64 143.478 341.64C144.62 341.64 145.649 341.891 146.566 342.392C147.484 342.883 148.204 343.565 148.726 344.44C149.249 345.315 149.51 346.301 149.51 347.4C149.51 348.499 149.249 349.485 148.726 350.36C148.204 351.235 147.484 351.923 146.566 352.424C145.649 352.915 144.62 353.16 143.478 353.16ZM143.478 351.336C144.225 351.336 144.897 351.171 145.494 350.84C146.092 350.499 146.561 350.029 146.902 349.432C147.244 348.824 147.414 348.147 147.414 347.4C147.414 346.653 147.244 345.981 146.902 345.384C146.561 344.776 146.092 344.307 145.494 343.976C144.897 343.635 144.225 343.464 143.478 343.464C142.732 343.464 142.06 343.635 141.462 343.976C140.865 344.307 140.396 344.776 140.054 345.384C139.713 345.981 139.542 346.653 139.542 347.4C139.542 348.147 139.713 348.824 140.054 349.432C140.396 350.029 140.865 350.499 141.462 350.84C142.06 351.171 142.732 351.336 143.478 351.336ZM159.363 347.272H161.331V351.736C160.755 352.195 160.083 352.547 159.315 352.792C158.547 353.037 157.758 353.16 156.947 353.16C155.806 353.16 154.776 352.915 153.859 352.424C152.942 351.923 152.222 351.235 151.699 350.36C151.176 349.485 150.915 348.499 150.915 347.4C150.915 346.301 151.176 345.315 151.699 344.44C152.222 343.565 152.942 342.883 153.859 342.392C154.787 341.891 155.827 341.64 156.979 341.64C157.918 341.64 158.771 341.795 159.539 342.104C160.307 342.413 160.952 342.867 161.475 343.464L160.163 344.744C159.31 343.891 158.28 343.464 157.075 343.464C156.286 343.464 155.582 343.629 154.963 343.96C154.355 344.291 153.875 344.755 153.523 345.352C153.182 345.949 153.011 346.632 153.011 347.4C153.011 348.147 153.182 348.819 153.523 349.416C153.875 350.013 154.355 350.483 154.963 350.824C155.582 351.165 156.28 351.336 157.059 351.336C157.934 351.336 158.702 351.144 159.363 350.76V347.272ZM164.074 341.8H166.154V353H164.074V341.8ZM179.136 341.8V353H177.424L171.248 345.416V353H169.184V341.8H170.896L177.072 349.384V341.8H179.136Z" fill="#2148C0"/>
<path d="M161.491 386.192V390.096H167.107V391.472H161.491V396H159.891V384.8H167.795V386.192H161.491ZM173.19 396.096C172.347 396.096 171.59 395.909 170.918 395.536C170.246 395.163 169.718 394.651 169.334 394C168.96 393.339 168.774 392.592 168.774 391.76C168.774 390.928 168.96 390.187 169.334 389.536C169.718 388.875 170.246 388.363 170.918 388C171.59 387.627 172.347 387.44 173.19 387.44C174.032 387.44 174.784 387.627 175.446 388C176.118 388.363 176.64 388.875 177.014 389.536C177.398 390.187 177.59 390.928 177.59 391.76C177.59 392.592 177.398 393.339 177.014 394C176.64 394.651 176.118 395.163 175.446 395.536C174.784 395.909 174.032 396.096 173.19 396.096ZM173.19 394.752C173.734 394.752 174.219 394.629 174.646 394.384C175.083 394.128 175.424 393.776 175.67 393.328C175.915 392.869 176.038 392.347 176.038 391.76C176.038 391.173 175.915 390.656 175.67 390.208C175.424 389.749 175.083 389.397 174.646 389.152C174.219 388.907 173.734 388.784 173.19 388.784C172.646 388.784 172.155 388.907 171.718 389.152C171.291 389.397 170.95 389.749 170.694 390.208C170.448 390.656 170.326 391.173 170.326 391.76C170.326 392.347 170.448 392.869 170.694 393.328C170.95 393.776 171.291 394.128 171.718 394.384C172.155 394.629 172.646 394.752 173.19 394.752ZM181.186 388.944C181.452 388.453 181.847 388.08 182.37 387.824C182.892 387.568 183.527 387.44 184.274 387.44V388.928C184.188 388.917 184.071 388.912 183.922 388.912C183.09 388.912 182.434 389.163 181.954 389.664C181.484 390.155 181.25 390.859 181.25 391.776V396H179.714V387.52H181.186V388.944ZM194.201 387.52V394.848C194.201 396.331 193.833 397.424 193.097 398.128C192.361 398.843 191.262 399.2 189.801 399.2C189.001 399.2 188.238 399.088 187.513 398.864C186.787 398.651 186.201 398.341 185.753 397.936L186.489 396.752C186.883 397.093 187.369 397.36 187.945 397.552C188.531 397.755 189.134 397.856 189.753 397.856C190.745 397.856 191.475 397.621 191.945 397.152C192.425 396.683 192.665 395.968 192.665 395.008V394.336C192.302 394.773 191.854 395.104 191.321 395.328C190.798 395.541 190.227 395.648 189.609 395.648C188.798 395.648 188.062 395.477 187.401 395.136C186.75 394.784 186.238 394.299 185.865 393.68C185.491 393.051 185.305 392.336 185.305 391.536C185.305 390.736 185.491 390.027 185.865 389.408C186.238 388.779 186.75 388.293 187.401 387.952C188.062 387.611 188.798 387.44 189.609 387.44C190.249 387.44 190.841 387.557 191.385 387.792C191.939 388.027 192.393 388.373 192.745 388.832V387.52H194.201ZM189.785 394.304C190.339 394.304 190.835 394.187 191.273 393.952C191.721 393.717 192.067 393.392 192.313 392.976C192.569 392.549 192.697 392.069 192.697 391.536C192.697 390.715 192.425 390.053 191.881 389.552C191.337 389.04 190.638 388.784 189.785 388.784C188.921 388.784 188.217 389.04 187.673 389.552C187.129 390.053 186.857 390.715 186.857 391.536C186.857 392.069 186.979 392.549 187.225 392.976C187.481 393.392 187.827 393.717 188.265 393.952C188.713 394.187 189.219 394.304 189.785 394.304ZM200.768 396.096C199.925 396.096 199.168 395.909 198.496 395.536C197.824 395.163 197.296 394.651 196.912 394C196.538 393.339 196.352 392.592 196.352 391.76C196.352 390.928 196.538 390.187 196.912 389.536C197.296 388.875 197.824 388.363 198.496 388C199.168 387.627 199.925 387.44 200.768 387.44C201.61 387.44 202.362 387.627 203.024 388C203.696 388.363 204.218 388.875 204.592 389.536C204.976 390.187 205.168 390.928 205.168 391.76C205.168 392.592 204.976 393.339 204.592 394C204.218 394.651 203.696 395.163 203.024 395.536C202.362 395.909 201.61 396.096 200.768 396.096ZM200.768 394.752C201.312 394.752 201.797 394.629 202.224 394.384C202.661 394.128 203.002 393.776 203.248 393.328C203.493 392.869 203.616 392.347 203.616 391.76C203.616 391.173 203.493 390.656 203.248 390.208C203.002 389.749 202.661 389.397 202.224 389.152C201.797 388.907 201.312 388.784 200.768 388.784C200.224 388.784 199.733 388.907 199.296 389.152C198.869 389.397 198.528 389.749 198.272 390.208C198.026 390.656 197.904 391.173 197.904 391.76C197.904 392.347 198.026 392.869 198.272 393.328C198.528 393.776 198.869 394.128 199.296 394.384C199.733 394.629 200.224 394.752 200.768 394.752ZM212.06 395.504C211.836 395.696 211.559 395.845 211.228 395.952C210.897 396.048 210.556 396.096 210.204 396.096C209.351 396.096 208.689 395.867 208.22 395.408C207.751 394.949 207.516 394.293 207.516 393.44V388.784H206.076V387.52H207.516V385.664H209.052V387.52H211.484V388.784H209.052V393.376C209.052 393.835 209.164 394.187 209.388 394.432C209.623 394.677 209.953 394.8 210.38 394.8C210.849 394.8 211.249 394.667 211.58 394.4L212.06 395.504ZM222.71 387.44C223.531 387.44 224.267 387.621 224.918 387.984C225.568 388.347 226.075 388.853 226.438 389.504C226.811 390.155 226.998 390.907 226.998 391.76C226.998 392.613 226.811 393.371 226.438 394.032C226.075 394.683 225.568 395.189 224.918 395.552C224.267 395.915 223.531 396.096 222.71 396.096C222.102 396.096 221.542 395.979 221.03 395.744C220.528 395.509 220.102 395.168 219.75 394.72V399.104H218.214V387.52H219.686V388.864C220.027 388.395 220.459 388.043 220.982 387.808C221.504 387.563 222.08 387.44 222.71 387.44ZM222.582 394.752C223.126 394.752 223.611 394.629 224.038 394.384C224.475 394.128 224.816 393.776 225.062 393.328C225.318 392.869 225.446 392.347 225.446 391.76C225.446 391.173 225.318 390.656 225.062 390.208C224.816 389.749 224.475 389.397 224.038 389.152C223.611 388.907 223.126 388.784 222.582 388.784C222.048 388.784 221.563 388.912 221.126 389.168C220.699 389.413 220.358 389.76 220.102 390.208C219.856 390.656 219.734 391.173 219.734 391.76C219.734 392.347 219.856 392.869 220.102 393.328C220.347 393.776 220.688 394.128 221.126 394.384C221.563 394.629 222.048 394.752 222.582 394.752ZM232.13 387.44C233.303 387.44 234.199 387.728 234.818 388.304C235.447 388.88 235.762 389.739 235.762 390.88V396H234.306V394.88C234.05 395.275 233.682 395.579 233.202 395.792C232.733 395.995 232.173 396.096 231.522 396.096C230.573 396.096 229.81 395.867 229.234 395.408C228.669 394.949 228.386 394.347 228.386 393.6C228.386 392.853 228.658 392.256 229.202 391.808C229.746 391.349 230.61 391.12 231.794 391.12H234.226V390.816C234.226 390.155 234.034 389.648 233.65 389.296C233.266 388.944 232.701 388.768 231.954 388.768C231.453 388.768 230.962 388.853 230.482 389.024C230.002 389.184 229.597 389.403 229.266 389.68L228.626 388.528C229.063 388.176 229.586 387.909 230.194 387.728C230.802 387.536 231.447 387.44 232.13 387.44ZM231.778 394.912C232.365 394.912 232.871 394.784 233.298 394.528C233.725 394.261 234.034 393.888 234.226 393.408V392.224H231.858C230.557 392.224 229.906 392.661 229.906 393.536C229.906 393.963 230.071 394.299 230.402 394.544C230.733 394.789 231.191 394.912 231.778 394.912ZM241.036 396.096C240.343 396.096 239.676 396.005 239.036 395.824C238.396 395.632 237.895 395.392 237.532 395.104L238.172 393.888C238.546 394.155 238.999 394.368 239.532 394.528C240.066 394.688 240.604 394.768 241.148 394.768C242.492 394.768 243.164 394.384 243.164 393.616C243.164 393.36 243.074 393.157 242.892 393.008C242.711 392.859 242.482 392.752 242.204 392.688C241.938 392.613 241.554 392.533 241.052 392.448C240.37 392.341 239.81 392.219 239.372 392.08C238.946 391.941 238.578 391.707 238.268 391.376C237.959 391.045 237.804 390.581 237.804 389.984C237.804 389.216 238.124 388.603 238.764 388.144C239.404 387.675 240.263 387.44 241.34 387.44C241.906 387.44 242.471 387.509 243.036 387.648C243.602 387.787 244.066 387.973 244.428 388.208L243.772 389.424C243.079 388.976 242.263 388.752 241.324 388.752C240.674 388.752 240.178 388.859 239.836 389.072C239.495 389.285 239.324 389.568 239.324 389.92C239.324 390.197 239.42 390.416 239.612 390.576C239.804 390.736 240.039 390.853 240.316 390.928C240.604 391.003 241.004 391.088 241.516 391.184C242.199 391.301 242.748 391.429 243.164 391.568C243.591 391.696 243.954 391.92 244.252 392.24C244.551 392.56 244.7 393.008 244.7 393.584C244.7 394.352 244.37 394.965 243.708 395.424C243.058 395.872 242.167 396.096 241.036 396.096ZM249.052 396.096C248.359 396.096 247.692 396.005 247.052 395.824C246.412 395.632 245.911 395.392 245.548 395.104L246.188 393.888C246.561 394.155 247.015 394.368 247.548 394.528C248.081 394.688 248.62 394.768 249.164 394.768C250.508 394.768 251.18 394.384 251.18 393.616C251.18 393.36 251.089 393.157 250.908 393.008C250.727 392.859 250.497 392.752 250.22 392.688C249.953 392.613 249.569 392.533 249.068 392.448C248.385 392.341 247.825 392.219 247.388 392.08C246.961 391.941 246.593 391.707 246.284 391.376C245.975 391.045 245.82 390.581 245.82 389.984C245.82 389.216 246.14 388.603 246.78 388.144C247.42 387.675 248.279 387.44 249.356 387.44C249.921 387.44 250.487 387.509 251.052 387.648C251.617 387.787 252.081 387.973 252.444 388.208L251.788 389.424C251.095 388.976 250.279 388.752 249.34 388.752C248.689 388.752 248.193 388.859 247.852 389.072C247.511 389.285 247.34 389.568 247.34 389.92C247.34 390.197 247.436 390.416 247.628 390.576C247.82 390.736 248.055 390.853 248.332 390.928C248.62 391.003 249.02 391.088 249.532 391.184C250.215 391.301 250.764 391.429 251.18 391.568C251.607 391.696 251.969 391.92 252.268 392.24C252.567 392.56 252.716 393.008 252.716 393.584C252.716 394.352 252.385 394.965 251.724 395.424C251.073 395.872 250.183 396.096 249.052 396.096ZM267.311 387.52L264.143 396H262.671L260.223 389.568L257.743 396H256.271L253.119 387.52H254.575L257.039 394.272L259.599 387.52H260.895L263.407 394.304L265.935 387.52H267.311ZM272.268 396.096C271.425 396.096 270.668 395.909 269.996 395.536C269.324 395.163 268.796 394.651 268.412 394C268.038 393.339 267.852 392.592 267.852 391.76C267.852 390.928 268.038 390.187 268.412 389.536C268.796 388.875 269.324 388.363 269.996 388C270.668 387.627 271.425 387.44 272.268 387.44C273.11 387.44 273.862 387.627 274.524 388C275.196 388.363 275.718 388.875 276.092 389.536C276.476 390.187 276.668 390.928 276.668 391.76C276.668 392.592 276.476 393.339 276.092 394C275.718 394.651 275.196 395.163 274.524 395.536C273.862 395.909 273.11 396.096 272.268 396.096ZM272.268 394.752C272.812 394.752 273.297 394.629 273.724 394.384C274.161 394.128 274.502 393.776 274.748 393.328C274.993 392.869 275.116 392.347 275.116 391.76C275.116 391.173 274.993 390.656 274.748 390.208C274.502 389.749 274.161 389.397 273.724 389.152C273.297 388.907 272.812 388.784 272.268 388.784C271.724 388.784 271.233 388.907 270.796 389.152C270.369 389.397 270.028 389.749 269.772 390.208C269.526 390.656 269.404 391.173 269.404 391.76C269.404 392.347 269.526 392.869 269.772 393.328C270.028 393.776 270.369 394.128 270.796 394.384C271.233 394.629 271.724 394.752 272.268 394.752ZM280.264 388.944C280.531 388.453 280.925 388.08 281.448 387.824C281.971 387.568 282.605 387.44 283.352 387.44V388.928C283.267 388.917 283.149 388.912 283 388.912C282.168 388.912 281.512 389.163 281.032 389.664C280.563 390.155 280.328 390.859 280.328 391.776V396H278.792V387.52H280.264V388.944ZM293.167 384.128V396H291.695V394.656C291.354 395.125 290.922 395.483 290.399 395.728C289.876 395.973 289.3 396.096 288.671 396.096C287.85 396.096 287.114 395.915 286.463 395.552C285.812 395.189 285.3 394.683 284.927 394.032C284.564 393.371 284.383 392.613 284.383 391.76C284.383 390.907 284.564 390.155 284.927 389.504C285.3 388.853 285.812 388.347 286.463 387.984C287.114 387.621 287.85 387.44 288.671 387.44C289.279 387.44 289.839 387.557 290.351 387.792C290.863 388.016 291.29 388.352 291.631 388.8V384.128H293.167ZM288.799 394.752C289.332 394.752 289.818 394.629 290.255 394.384C290.692 394.128 291.034 393.776 291.279 393.328C291.524 392.869 291.647 392.347 291.647 391.76C291.647 391.173 291.524 390.656 291.279 390.208C291.034 389.749 290.692 389.397 290.255 389.152C289.818 388.907 289.332 388.784 288.799 388.784C288.255 388.784 287.764 388.907 287.327 389.152C286.9 389.397 286.559 389.749 286.303 390.208C286.058 390.656 285.935 391.173 285.935 391.76C285.935 392.347 286.058 392.869 286.303 393.328C286.559 393.776 286.9 394.128 287.327 394.384C287.764 394.629 288.255 394.752 288.799 394.752ZM298.265 392.464C298.265 392.037 298.335 391.664 298.473 391.344C298.623 391.013 298.799 390.736 299.001 390.512C299.215 390.288 299.492 390.021 299.833 389.712C300.26 389.339 300.575 389.019 300.777 388.752C300.98 388.475 301.081 388.144 301.081 387.76C301.081 387.237 300.879 386.821 300.473 386.512C300.068 386.192 299.508 386.032 298.793 386.032C297.545 386.032 296.591 386.453 295.929 387.296L294.761 386.464C295.209 385.888 295.78 385.445 296.473 385.136C297.177 384.827 297.988 384.672 298.905 384.672C300.068 384.672 300.991 384.928 301.673 385.44C302.356 385.941 302.697 386.635 302.697 387.52C302.697 387.957 302.623 388.347 302.473 388.688C302.335 389.019 302.164 389.296 301.961 389.52C301.759 389.744 301.487 390.011 301.145 390.32C300.708 390.715 300.383 391.061 300.169 391.36C299.967 391.659 299.865 392.027 299.865 392.464H298.265ZM299.081 396.096C298.783 396.096 298.532 396 298.329 395.808C298.137 395.605 298.041 395.36 298.041 395.072C298.041 394.784 298.137 394.544 298.329 394.352C298.532 394.149 298.783 394.048 299.081 394.048C299.38 394.048 299.625 394.149 299.817 394.352C300.009 394.544 300.105 394.784 300.105 395.072C300.105 395.36 300.004 395.605 299.801 395.808C299.609 396 299.369 396.096 299.081 396.096Z" fill="white"/>
<path d="M94 2H107.652C109.831 2 111.753 3.42651 112.387 5.51343L133.76 75.9005C134.393 77.9874 136.316 79.4139 138.494 79.4139H186.649C188.913 79.4139 190.889 77.8753 191.446 75.6779L200.068 41.6561C200.624 39.4586 202.6 37.9201 204.865 37.9201H213.386" stroke="white" stroke-width="3.75648" stroke-linecap="round"/>
<path d="M164.593 21.7428C163.869 21.0174 162.694 21.0174 161.969 21.7428L150.159 33.5667C149.434 34.2923 149.434 35.4686 150.159 36.1942C150.884 36.9197 152.059 36.9197 152.783 36.1942L163.281 25.6842L173.779 36.1942C174.504 36.9197 175.678 36.9197 176.403 36.1942C177.128 35.4686 177.128 34.2923 176.403 33.5667L164.593 21.7428ZM165.137 57.7381V23.0566H161.425V57.7381H165.137Z" fill="white"/>
<path d="M150.291 99.8512C153.366 99.8512 155.858 97.3557 155.858 94.2774C155.858 91.1991 153.366 88.7036 150.291 88.7036C147.216 88.7036 144.724 91.1991 144.724 94.2774C144.724 97.3557 147.216 99.8512 150.291 99.8512Z" stroke="white" stroke-width="3.00518"/>
<path d="M177.508 99.8512C180.583 99.8512 183.076 97.3557 183.076 94.2774C183.076 91.1991 180.583 88.7036 177.508 88.7036C174.434 88.7036 171.941 91.1991 171.941 94.2774C171.941 97.3557 174.434 99.8512 177.508 99.8512Z" stroke="white" stroke-width="3.00518"/>
<defs>
<filter id="filter0_d_1_8" x="0" y="324" width="308" height="53" filterUnits="userSpaceOnUse" color-interpolation-filters="sRGB">
<feFlood flood-opacity="0" result="BackgroundImageFix"/>
<feColorMatrix in="SourceAlpha" type="matrix" values="0 0 0 0 0 0 0 0 0 0 0 0 0 0 0 0 0 0 127 0" result="hardAlpha"/>
<feOffset dy="4"/>
<feGaussianBlur stdDeviation="2"/>
<feColorMatrix type="matrix" values="0 0 0 0 0 0 0 0 0 0 0 0 0 0 0 0 0 0 0.3 0"/>
<feBlend mode="normal" in2="BackgroundImageFix" result="effect1_dropShadow_1_8"/>
<feBlend mode="normal" in="SourceGraphic" in2="effect1_dropShadow_1_8" result="shape"/>
</filter>
</defs>
</svg>
